<?xml version="1.0" encoding="utf-8"?>
<!-- Generator: Adobe Illustrator 24.2.1, SVG Export Plug-In . SVG Version: 6.00 Build 0)  -->
<svg version="1.1" id="Camada_1" xmlns="http://www.w3.org/2000/svg" xmlns:xlink="http://www.w3.org/1999/xlink" x="0px" y="0px"
	 viewBox="0 0 512 512" style="enable-background:new 0 0 512 512;" xml:space="preserve">
<style type="text/css">
	.st0{fill:#FFFFFF;}
</style>
<g>
	<path class="st0" d="M502.4,437.7l-52.2-87l4.7-40h6.6c11.8,0,21.4-9.6,21.4-21.4v-24.5c0-11.8-9.6-21.4-21.4-21.4h-29.3v-28
		c0-0.1,0-0.2,0-0.2c0-1.8-0.6-3.4-1.6-4.7c0,0,0,0,0,0L404.7,178v-27.3c0-9-7.3-16.4-16.3-16.4h-30.2c-0.2-0.4-0.4-0.8-0.6-1.1
		c-3.7-7-14-15.9-30.4-26.6c-3.4-2.2-5.5-6-5.5-10.1V76.6c3.2-1.6,5.4-4.9,5.4-8.7V26.2c0-14.4-11.7-26.2-26.2-26.2h-28.5
		c-14.4,0-26.2,11.7-26.2,26.2v41.7c0,3.8,2.2,7.1,5.4,8.7v19.9c0,4.1-2,7.9-5.5,10.1c-2.7,1.8-5.8,3.8-8.9,6c0-0.6,0-1.2,0-1.8
		c0-22.1-17.9-40-40-40c-22.1,0-40,17.9-40,40c0,2.8,0.3,5.7,0.9,8.4c0.9,4.3,1.7,8.2,2.5,11.9c-9.1-3.2-19.7-1.8-27.7,4.8
		c-5.9,4.8-9.6,11.7-10.4,19.3c-0.8,7.6,1.5,15.1,6.3,20.9c1.3,1.6,2.7,3,4.3,4.3l22.3,18c-12.6,11.1-20.7,27.1-21.4,45H98.5
		l-1.6-2.9c0.2-0.1,0.5-0.2,0.7-0.4c24-12.8,44-33.7,35.8-49.1s-36.7-10.5-60.7,2.3c-0.2,0.1-0.5,0.2-0.7,0.4l-10.1-19
		c0.2-0.1,0.5-0.2,0.7-0.4c11.9-6.4,22.3-14.3,29-22.4c11.2-13.3,9-22.4,6.8-26.7s-8.7-11.1-25.9-9.3c-10.5,1.1-22.8,5.2-34.8,11.6
		c-0.2,0.1-0.5,0.2-0.7,0.4l-7.6-14.2c-4.2-7.9-6.4-16.5-6.4-25.4c0-20.1,11-38.5,28.8-47.9c12.8-6.8,27.4-8.2,41.3-4
		c13.8,4.2,25.2,13.6,32,26.4l12.9,24.3c1.9,3.7,6.5,5,10.1,3.1c3.7-1.9,5-6.5,3.1-10.1l-12.9-24.3C120.6,22.2,78.6,9.3,44.9,27.2
		C22.2,39.3,8.2,62.7,8.2,88.4c0,11.2,2.8,22.5,8.1,32.4l65.2,122.6H51c-11.8,0-21.4,9.6-21.4,21.4v24.5c0,11.8,9.6,21.4,21.4,21.4
		h6.6l4.7,40l-52.2,87c-3,5-3.8,10.8-2.4,16.4c1.4,5.6,4.9,10.3,9.9,13.3c2.5,1.5,5.2,2.5,8.1,2.9c1,0.1,2,0.2,3.1,0.2
		c7.5,0,14.6-3.9,18.5-10.5L70.5,421l1.7,14.4c0.4,3.8,3.7,6.6,7.4,6.6c0.3,0,0.6,0,0.9-0.1c4.1-0.5,7.1-4.2,6.6-8.3L83.2,400
		l53.6-89.3h239l53.6,89.3l-9.4,80.5c-1.1,9.4-9.1,16.6-18.6,16.6H111.2c-9.5,0-17.5-7.1-18.6-16.6l-2-16.9
		c-0.5-4.1-4.2-7.1-8.3-6.6c-4.1,0.5-7.1,4.2-6.6,8.3l2,16.9c2,17,16.4,29.8,33.5,29.8h290.1c17.1,0,31.5-12.8,33.5-29.8l7.2-61.1
		l23.4,38.9c6.2,10.3,19.5,13.5,29.7,7.4C505.2,461.2,508.5,447.9,502.4,437.7z M79.8,206.6c24.2-12.9,39.3-10.6,40.4-8.5
		c1.1,2.1-5.5,15.9-29.6,28.8c-0.2,0.1-0.5,0.2-0.7,0.4L79.1,207C79.3,206.8,79.6,206.7,79.8,206.6z M44.8,140.8
		c10.1-5.4,20.8-9,29.3-9.9c7.5-0.8,10.7,0.8,11.1,1.4c0.4,0.7-0.2,4.3-5,10c-5.5,6.5-14.5,13.4-24.6,18.8c-0.2,0.1-0.5,0.2-0.7,0.4
		l-10.8-20.3C44.4,141.1,44.6,141,44.8,140.8z M437.5,329.6l-11.4-18.9h13.6L437.5,329.6z M285.5,243.5v-25.7l23.6-29.7h84.4
		l15.6,19.6h-34c-4.1,0-7.5,3.4-7.5,7.5s3.4,7.5,7.5,7.5h42v20.8H285.5z M389.7,150.6v22.5H313v-22.5c0-0.7,0.6-1.3,1.3-1.3H353
		c0.1,0,0.1,0,0.2,0s0.1,0,0.2,0h34.9C389.1,149.3,389.7,149.9,389.7,150.6z M272.5,15h28.5c6.2,0,11.2,5,11.2,11.2v36.5h-50.8V26.2
		C261.3,20,266.3,15,272.5,15z M254.4,119.2c7.7-5,12.3-13.5,12.3-22.7V77.6h40v18.9c0,9.2,4.6,17.7,12.3,22.7
		c10.4,6.7,16.6,11.7,20.2,15.1h-24.9c-9,0-16.3,7.3-16.3,16.3V178l-25.9,32.5c-1.1,1.3-1.6,3-1.6,4.7v28.3h-10
		c-0.7-17.9-8.8-33.9-21.4-45c2.5-2,5.5-4.4,9.1-7.3l13.3-10.7c1.6-1.3,3-2.7,4.3-4.3c4.8-5.9,7.1-13.4,6.3-21s-4.5-14.5-10.4-19.3
		c-5.9-4.8-13.4-7.1-21-6.3c-0.4,0-0.9,0.1-1.3,0.2C243.5,126.5,248.6,122.9,254.4,119.2z M228.3,158c2.1-2.9,3.9-12.4,13.9-13.4
		c3.6-0.4,7.2,0.7,10,3c2.8,2.3,4.6,5.6,4.9,9.2c0.5,4.7-1.4,9.1-5.1,12.1l-13.3,10.7c-5.4,4.3-9.4,7.6-12.6,10.1
		c-1.4-0.7-2.8-1.4-4.2-2L228.3,158z M197.4,85.8c13.8,0,25,11.2,25,25c0,1.8-0.2,3.6-0.6,5.3l-2.9,13.8c0,0.1,0,0.1,0,0.2
		l-11.3,53.3c-3.3-0.5-6.7-0.8-10.2-0.8c-3.5,0-6.9,0.3-10.2,0.8l-0.1-0.4c-2.6-12.3-5.4-25.6-14.1-66.9c-0.4-1.8-0.6-3.5-0.6-5.3
		C172.4,97,183.6,85.8,197.4,85.8z M140.7,166.7c-4.8-5.8-3.9-14.4,1.9-19.2c6.6-5.4,16.7-3.5,20.8,4.4l3.1,6.1
		c2.8,13.3,4.4,20.9,5.9,28.1l0.3,1.5c-1.4,0.6-2.8,1.3-4.2,2C141.3,167.5,142.2,168.6,140.7,166.7z M197.4,197.7
		c25.8,0,46.9,20.3,48.1,45.8h-96.2C150.6,218,171.7,197.7,197.4,197.7z M72.7,310.7h13.6l-11.4,18.9L72.7,310.7z M34.3,452.2
		c-1.4,2.3-4,3.5-6.6,3.2h0c-0.9-0.1-1.7-0.4-2.5-0.9c-1.5-0.9-2.6-2.4-3-4.1s-0.2-3.5,0.7-5l53.5-89.1c0,0,0,0,0,0l29.4-48.9
		c0.1-0.2,0.2-0.3,0.3-0.5l16.4-27.3c0.9-1.5,2.4-2.6,4.1-3c0.5-0.1,1.1-0.2,1.6-0.2c1.2,0,2.4,0.3,3.4,0.9c3.1,1.9,4.2,6,2.3,9.1
		l-7.7,12.8c-0.1,0.1-0.2,0.3-0.2,0.4L34.3,452.2z M145.8,295.7l1-1.6c3-5,3.8-10.8,2.4-16.4c-1.4-5.6-4.9-10.3-9.9-13.3
		s-10.8-3.8-16.4-2.4s-10.3,4.9-13.3,9.9l-14.3,23.9H51c-3.5,0-6.4-2.9-6.4-6.4v-24.5c0-3.5,2.9-6.4,6.4-6.4h410.5
		c3.5,0,6.4,2.9,6.4,6.4v24.5c0,3.5-2.9,6.4-6.4,6.4h-44.3l-14.3-23.9c-3-5-7.7-8.5-13.3-9.9c-5.6-1.4-11.4-0.5-16.4,2.4
		c-5,3-8.5,7.7-9.9,13.3c-1.4,5.6-0.5,11.4,2.4,16.4l1,1.6H145.8z M484.8,455.4c-0.1,0-4.4,0.6-6.6-3.2
		c-5.6-9.4-94.3-157.1-99.5-165.9c-1.9-3.1-0.9-7.2,2.3-9.1c3.1-1.9,7.2-0.9,9.1,2.3c5.5,9.2,40.6,67.7,46,76.7c0,0,0,0,0,0.1
		l53.5,89.1C492,449.5,489.4,454.7,484.8,455.4z"/>
	<path class="st0" d="M178.8,376.2v-24.8c0-11-9-20-20-20c-11,0-20,9-20,20v24.8c0,11,9,20,20,20
		C169.8,396.2,178.8,387.2,178.8,376.2z M153.7,376.2v-24.8c0-2.8,2.3-5,5-5s5,2.3,5,5v24.8c0,2.8-2.3,5-5,5
		S153.7,378.9,153.7,376.2z"/>
	<path class="st0" d="M227.5,457.2v-24.8c0-11-9-20-20-20c-11,0-20,9-20,20v24.8c0,11,9,20,20,20
		C218.5,477.3,227.5,468.3,227.5,457.2z M202.5,457.2v-24.8c0-2.8,2.3-5,5-5c2.8,0,5,2.3,5,5v24.8c0,2.8-2.3,5-5,5
		C204.7,462.3,202.5,460,202.5,457.2z"/>
	<path class="st0" d="M276.3,376.2v-24.8c0-11-9-20-20-20c-11,0-20,9-20,20v24.8c0,11,9,20,20,20
		C267.3,396.2,276.3,387.2,276.3,376.2z M251.2,376.2v-24.8c0-2.8,2.3-5,5-5c2.8,0,5,2.3,5,5v24.8c0,2.8-2.3,5-5,5
		C253.5,381.2,251.2,378.9,251.2,376.2z"/>
	<path class="st0" d="M325,457.2v-24.8c0-11-9-20-20-20c-11,0-20,9-20,20v24.8c0,11,9,20,20,20C316,477.3,325,468.3,325,457.2z
		 M300,457.2v-24.8c0-2.8,2.3-5,5-5c2.8,0,5,2.3,5,5v24.8c0,2.8-2.3,5-5,5C302.2,462.3,300,460,300,457.2z"/>
	<path class="st0" d="M373.8,376.2v-24.8c0-11-9-20-20-20c-11,0-20,9-20,20v24.8c0,11,9,20,20,20
		C364.8,396.2,373.8,387.2,373.8,376.2z M348.7,376.2v-24.8c0-2.8,2.3-5,5-5s5,2.3,5,5v24.8c0,2.8-2.3,5-5,5
		S348.7,378.9,348.7,376.2z"/>
</g>
</svg>
